<svg width="24" height="24" viewBox="0 0 24 24" fill="#fff" xmlns="http://www.w3.org/2000/svg">
<g id="icon/action/build_24px">
<path id="icon/action/build_24px_2" d="M12.4732 3.2469C10.4632 1.2369 7.45318 0.826899 5.03318 2.0069L8.66318 5.6369C9.05318 6.0269 9.05318 6.6569 8.66318 7.0469L7.07318 8.6369C6.68318 9.0369 6.05318 9.0369 5.66318 8.6369L2.03318 5.0069C0.863182 7.4369 1.27318 10.4269 3.28318 12.4369C5.14318 14.2969 7.86318 14.7869 10.1732 13.9169L18.1332 21.8769C19.1632 22.9069 20.8232 22.9069 21.8432 21.8769C22.8732 20.8469 22.8732 19.1869 21.8432 18.1669L13.9232 10.2369C14.8432 7.8969 14.3632 5.1369 12.4732 3.2469Z"/>
</g>
</svg>
